M48
;Layer_Color=6321
;FILE_FORMAT=2:5
INCH,LZ
;TYPE=PLATED
T1F00S00C0.01181
T2F00S00C0.02756
T3F00S00C0.03000
T4F00S00C0.03150
T5F00S00C0.03346
T6F00S00C0.03937
T7F00S00C0.04000
T10F00S00C0.09055
%
T01
X0107087Y0118504
X0123721Y0118996
Y0122933
Y012687
X0122441Y0108661
X0144488Y0108268
X0148819Y0152756
X0105118Y015
X0105905Y0134646
X0168012Y0146949
X016811Y0153543
X0184941Y0154232
X0204921Y0151083
X0230315Y0148031
X0230709Y0143307
X0228063Y013926
X0229528Y0135728
X0236221Y0124409
Y0120472
Y0116535
X0233071Y0107087
X0252756Y010748
X0254724Y011811
X025315Y0125197
X0245276Y0131102
X0244488Y0154331
X023189Y0154724
X0213386Y0107874
X0196457Y010748
X0170079
X0303937Y0109055
X0304331Y0125197
X0308661Y0137008
Y0140157
Y0143307
Y0146457
Y0149213
X0324016Y0142913
X0333071Y013937
X0337402
X0341732
X0346063
X0350394
X0354724
X0359055
Y0129134
X0354724
X0350394
X0346063
X0341732
X0337402
X0333071
X0319291Y0123228
X0333071Y015
X0337402
X0341732
X0345669
X0350394
X0354724
X0359055
X0379921Y0140551
X0407087Y0144882
X0415748Y015
X0425984Y0151575
X0440551Y013189
X0412992Y0125591
X0414173Y0107087
X0379921Y010748
X0348031Y0109055
X045748Y0107087
X0482677Y0113779
X0484646Y0129528
X0488583Y016063
X0490158Y0198425
X0469685Y0199213
X0469645Y0201969
X0489764Y0229134
Y0262598
X0470472Y0277953
X0489764Y0304113
X046811Y0286614
X0453543Y0297244
X0434646
X0432283Y0304331
X0424016Y0303937
X0410236Y0303543
X0415354Y0294882
X0412543Y0289272
X0412543Y0276083
Y0271358
X0421358Y0271161
X042126Y0279921
X0427953Y0274311
X043189Y0265354
X0435039Y0258268
X044065Y0257382
X0448032Y0257874
X0458268Y0253543
X0457283Y0250197
X0456693Y0247539
X0457874Y0243307
X0455315Y0215846
X0457087Y0206693
X0463189Y0209744
X0465256Y0195177
X0447342Y0204331
Y0208661
X0442028Y02125
X0428346Y0207087
X0431693Y0199803
X043189Y0191929
X0431791Y0188583
X0421161Y0183563
X0416732Y0175394
X0411614Y0178543
X0404724
X0397736
X039124Y0178642
X0385039Y0178543
X0377264Y0178445
X0370768Y0178543
X0364567Y0178445
X0357677
X0351181Y0178543
X034498Y0178445
X0338189Y0178543
X0331693Y0178642
X0325492Y0178543
X032559Y0172047
X0334252Y0166142
X0319291Y0162205
X0316929Y0200394
X0323228Y0203937
X0322721Y020776
X0324213Y02135
X033376Y0211319
X0335039Y022126
X0331496Y0221555
X0329823Y0224508
X0328839Y0235925
X0332283Y023563
X0336221Y0236614
X0334646Y0240158
X0347342Y0239272
X0347244Y0233465
X034252
X0352362Y0231496
X0351181Y0237008
X0354724Y0238189
X0359055Y0235827
X0365135Y0236992
X0364075Y0241437
X0371161Y0241043
X0368898Y0233858
X0365748Y0231102
X0356102Y022126
X0356398Y0217815
X0356299Y0214173
X0363779Y0208957
Y0199606
X0372244Y0199508
X0375394Y0200886
X0381004Y0204823
X0381496Y0197146
X0379429Y0191831
X0380315Y0188091
X0368898Y0190157
X0389862Y0198075
X039813Y019591
X0403445Y0207703
X0414173Y0207087
X0411319Y0211221
X0411614Y0221949
X0403445Y0222539
X0391634Y0211319
X0420866Y0213779
X041811Y0200394
X0413779Y0198031
X0416142Y0166535
X0425984
X0403883Y0171766
X0395374Y0172047
X0352756Y0169291
X034815Y0208852
X0335335Y0200197
X0330315Y02
X0326969Y0197244
X0328445Y0249902
X0337008Y0251575
X0344488Y0250098
X0347638Y0248819
X0348819Y0258268
X0343799Y0263189
Y0276772
X034799Y0273829
X0351378Y0273425
X035689Y0274705
X0361417Y0274114
X0363583Y0282283
X0352461Y0283661
X0348031Y0283858
X0343799Y0285531
X034486Y0292216
X0344986Y0297137
X034486Y0302058
X0329134Y0295669
X0320571Y0289272
Y0284547
X0320669Y0279724
X031624Y0276476
X0325689Y0275098
X0323482Y0271161
X0326575Y0262992
X0317815Y0259055
X0314567Y0257874
X0315453Y0253346
X0314567Y025
X0314961Y0242913
X0314272Y0239272
X0336032Y0272835
X0339919Y027313
X035748Y0262205
X0362598Y0262992
X0366142Y0255512
X0365158Y0250197
X0377559Y0246457
X0397441Y0253937
X0395768Y0274016
X0406693Y0278543
X0397976Y0289666
X0394094Y0303937
X0366929Y0311024
X036998Y0266831
X0421654Y026063
X0420571Y0253642
X0427854Y0254232
X0412598Y0245276
X0430709Y028937
X044685Y0311417
X0448819Y0172441
X0306299Y0176772
X0298819Y0177165
X0289764
Y0168898
X027126Y0168504
X0272047Y0176772
X0265846Y0177264
X0258366Y0179035
X0258268Y0183661
X0258248Y0173602
X0242126Y0172835
X0241732Y0186221
X0234842Y0194488
X0220079Y0194783
X022559Y0186811
X0225394Y0183366
X0226378Y0178937
X0217815Y0177362
X0210827Y0170276
X020315Y0166929
X0199606Y0159941
X0191634Y0161937
X0187894Y0170177
X0184252Y0170079
X0185827Y0180217
X0193012
X0202165Y0183071
X0206201Y0180217
X020748Y0185236
X0210827Y0184843
X0206496Y0199311
X020315Y0197933
X0213386Y0207185
X0217028Y0206201
X0216339Y0209547
X0217323Y0212992
X0214075Y0214764
X0210335Y0224508
X0212008Y022815
X0214764Y0230709
X0216929Y023435
X0229134Y0234646
X0229035Y0238583
X0229626Y0226083
X0234842Y0227264
X0236024Y0214469
X0228839Y0215354
X022874Y0211713
X0228248Y0207057
X0237795Y0207677
X0242717Y0208366
X024311Y0202165
X0247244Y0202953
X0251575Y0208858
X025315Y0220669
X0241929Y0218406
X0250984Y0236024
X0250394Y0240551
X025059Y0244094
X0247146Y0246949
X0239567
X0262795Y0246555
X0263189Y0250984
X0264272Y0256201
X026437Y0259941
X0266043Y0269882
X0258268
X0255512Y0277165
X0242126
X0222835Y0265748
X020748Y0264764
X0196653Y0263484
X0188386Y0264272
X0184252Y0264173
X0175358Y0265059
X0170634
X0166303
X0171028Y0270571
X0174705Y0275
X0181398Y0273819
X0196457Y0274803
X020561Y0277559
X0200492Y0257677
X020187Y0250098
X0206693Y0248819
X0207087Y0238189
X0207677Y0230906
X0204232Y023189
X0199213Y0236221
X0192028Y0235531
X0187697Y023691
X0184153Y023809
X0186221Y0249213
X0195472Y0253445
X0212992Y0254331
X0213287Y0257874
X0177561Y0260026
X0175984Y0245669
X017126Y0240158
X0167717Y0241634
X0161614Y024941
X0160335Y0258957
X0161319Y0272342
X0166929Y0292913
X0174016Y0300787
X0162992Y0305118
X0182283Y0309055
X0198819Y0309842
X0191732Y029252
X0226772Y0293701
X0263386Y0292913
X0271654Y0274016
X0288976Y0270866
X029311Y0274311
X0292815Y0277461
X028937Y0284646
X0296457Y0284842
X0300689Y0271358
X0301083Y0263779
X0298425Y0261417
X0306693Y0232677
X0301181Y0219488
X0293898Y0219587
X0288583Y0220079
X0289764Y0227559
X0270965Y0226181
X0266535Y022313
X026437Y021191
X0264665Y0207677
X0264961Y0202559
X0265059Y0198228
X0264862Y0190453
X0253543Y0193307
X0250787Y0159843
X023189Y0158661
Y0162205
X0219488Y0157087
X021063Y015876
X015935Y0166043
X0156693Y0169291
X0161417Y0186024
X0163948Y0191889
X0173228Y0196161
X0177559Y0203248
X0177756Y0207179
X0177067Y0210728
X0180315Y0211811
Y0215748
X0179921Y0220472
X0177264Y0218209
X0178937Y022441
X0165748Y0224114
Y0219587
X016565Y0211417
X0172638Y0179528
X0302756Y0191339
X0305906Y0189764
X0300472Y0195748
X030315Y0199213
X0303543Y020315
X0308661Y0206693
X0312205
X0311024Y0210236
X0304724Y0161417
X0149028Y0168307
X0144882Y017185
X0141339Y0169685
Y0180709
X0145091Y0178347
X0147638Y0190453
X0154626Y0187402
X015374Y0196886
X0147047Y0213976
X0149311Y0219587
X0151673Y0222441
X0152559Y0229724
X0145965Y0229823
X0144882Y0235433
X0140453Y0240945
X0135039Y0248031
X0149311Y0251083
X0154724Y0250886
X0145965Y0257283
X0145079Y0266043
X0143307Y0277165
X0151181
X0147244Y0293701
X0149213Y0308268
X0153543Y0309055
X0128347Y0293701
X0129134Y0276772
X0114961Y0275984
X0105118
Y0261811
X0104724Y0241732
Y0227165
Y0209449
X0105512Y019685
X010414Y0183715
X0104399Y0166894
X0117028Y0207776
X0132382Y0204823
X0132185Y0213583
X0141535Y0220177
X0109449Y0293701
X010748Y0310236
X0107874Y0326378
X0124803Y0333858
X013937Y0326378
X014252Y0366142
X0149606Y0397638
X0124409Y0398031
X0107087Y0388189
X0106693Y0371654
Y0350787
X0160236Y0337008
X0173622Y0321654
X0174016Y0356693
X0187008Y035748
X0197244Y0368504
X0213779Y0367717
X0216142Y0383858
X0231496Y0396457
X023189Y0369291
X0231496Y0351181
X0218898Y0345669
X0220472Y0337795
X0212598Y0341732
X021063Y0327953
X0234646Y0324803
X0253543Y0326772
X0256791Y0336319
X0260433Y0336811
X0266535Y0334154
X0269299Y0331618
Y0328618
X0265748Y0323228
X0281496Y0324016
X0280906Y0332967
X0290945Y0330315
X0288779Y0341634
X0296654Y034065
X029626Y0347835
X028937Y0355906
X0280709Y0350684
X0272933Y0353346
X0270965Y0355118
X0266535Y0350197
X0261417Y0345866
X0256693Y034685
X0250689Y0341732
X0248819Y0356299
X026349Y0360954
X0272649Y0344531
X0270386Y0342062
X0275111
X0273228Y033937
X0261811Y0397638
X0188189Y039685
X0189764Y0379528
X0163386Y0363779
X031998Y0371654
X0328937Y0373721
X0330709Y0380709
X032874Y0383465
X0316929Y0381102
X0319685Y0388976
X0348031
X0375984
X0382283Y037874
X0385236Y0380807
X0377953Y0367323
X0370768Y0365945
X0354724Y0362205
X035748Y0355512
Y0342913
X0363779Y033189
X0376378Y0328346
X0386122Y0341437
X0399803Y0342421
X040315Y0345938
X0406693Y0346063
X042126Y0347244
X0437008Y0348819
X0440551Y0356693
X0442913Y0363779
X044685Y0361417
Y0366535
X0443307Y0369685
X0448425Y0381475
X0457874Y0372441
X0466535Y0367717
X046811Y0397244
X0440945Y0398031
X043937Y0324289
X0443307Y0319685
X0443701Y0314173
X0447244Y0317323
X0449606Y0330687
X0457874Y0322441
X0464961Y0320472
X0461417Y0312598
X040315Y0323622
X0399606Y032441
X0347244Y0332185
X033937Y032874
X0337008Y0312992
X0317717Y0325984
X0319685Y0328937
X032704Y0337795
X0329921Y0344658
Y0349678
X0316535Y0348819
X0317717Y0352362
X0489764Y0343876
X0487795Y0389152
T02
X0120669Y026439
Y027439
X0137402
Y026439
T03
X0469685Y02951
Y03049
X044252Y028049
Y027069
X0426279Y0233739
Y0223939
X0439293Y0185433
X0449093
X0384646Y0261635
Y0271435
X0379208Y0293767
X0369408
X0276279Y0305139
Y0314939
X0275492Y0369313
Y0379113
X0353171Y0376575
X0362971
X0364742Y032441
X0354942
X0419291Y032126
Y033106
X0418504Y0363998
Y0373798
X0469685Y0348207
Y0338407
T04
X0185433Y0131299
X0205118
X0419291Y0139764
X0454331Y0149213
X0474016
X0419291Y0159449
T05
X0170744Y0329567
X0179744
X0188744
X0201744
Y0349567
X0188744
X0179744
X0170744
T06
X0314961Y0175984
X0216535Y0272835
X0119291Y0299213
X0121709Y0171346
X0129583
Y0161504
X0121709
X0477953Y039252
T07
X0111516Y0223445
Y0233445
Y0243445
Y0253445
T10
X0111039Y0142724
Y0190126
M30
